<svg xmlns="http://www.w3.org/2000/svg" width="1512" height="1513" version="1" viewBox="0 0 15120 15130">
  <path fill="#c80000" d="M7224 15119c-830-36-1656-211-2429-514-477-187-980-448-1382-717-56-37-108-68-115-68s-680 222-1496 494c-815 272-1482 491-1482 488 0-4 223-675 495-1491l494-1484-118-186c-150-236-260-428-376-656C159 9694-108 8243 41 6780c233-2302 1526-4380 3499-5622C5178 126 7171-234 9085 156c2072 422 3873 1700 4968 3525 621 1035 973 2171 1057 3407 22 337 11 887-26 1257-208 2082-1296 4003-2985 5272-647 486-1380 870-2151 1127-863 287-1797 416-2724 375z"/>
  <g fill="#fff">
    <path d="M1200 9125c0-8 108-522 240-1142s238.5834-1138.7916 238.5834-1142.7916c277.663.6666 134.7438-3.079 296.4166-.2084l291 5.1669c-5 25-92 453.8331-195 934.8331l-186 875 274 3c151 1 275 1 277 0 1-2 89-411 196-910l193-908h293c186 0 292 4 292 10 0 5-85 412-190 904-104 492-190 897-190 900s124 6 275 6h275l5-22c3-13 90-421 194-908l188-885 297-3c280-2 297-1 292 15-3 10-109 504-235 1098-127 594-235 1104-241 1133l-12 52H2634c-1250 0-1434-2-1434-15zM4360 9133c1-5 288-521 638-1148l638-1140 359-3 360-2 129 1122c70 618 133.8333 1157.6664 137.8333 1179.1664L6316 9140l-312.3333-.5002C6000.1667 9121.9998 5996 9021 5990 8930c-6-91-13-195-17-232l-6-68h-745l-129 253-129 252-302 3c-166 1-302-1-302-5zm1590-937c0-8-13-198-30-423-16-224-30-409-42.5-409S5772 7535 5644 7785c-118 231-214 421-214 422 0 2 117 3 260 3 220 0 260-2 260-14zM6913 9118c3-13 112-531 243-1151l238-1128 531 3c511 4 533 4 610 26 143 39 239 94 335 191 93 93 134 163 166 281 22 82 25 294 5 395-77 389-365 648-796 715-44 7-199 16-344 19l-265 6-68 320c-37 176-70 326-73 333-3 9-72 12-296 12h-291zm1219-1109c222-47 366-259 329-487-17-104-56-157-149-200-55-26-62-27-242-27h-184l-71 335c-39 184-75 367.0344-80 388.5344L7904 8020c95.9964.8325 199-5 228-11zM9325 7963l239-1123h288l273.993-1.0757C10115.993 6881.9243 9840 8245 9849.5 8252s292.5-312 630.5-702l615-709h283c219-1 282 2 282 12-1 6-110 523-243 1147l-242 1135-287 3c-159 1-288 0-288-3s68-320 150-705c83-385 150-702 150-705 0-29-113 94-645 705l-618 710h-280l-271.9931-1.4656C9088.0069 9117.0344 9194 8580 9325 7963zM11498 9093c22-27 195-228 385-447l344-399-73-49c-89-60-144-121-189-213-52-105-68-181-68-315 2-251 99-452 294-604 99-78 176-119 299-160 188-63 229.002-67.6683 868-66l563.993 1.4725C13917.993 6858.9725 13814 7382 13685 7990c-129 608-237 1135.0344-241 1152.5344L13144 9140c-276.99-2.34-292.997 7.0138-287.997-8.9862 3-10 36.997-188.0138 78.997-386.0138s78-368 81-377c5-16-4-18-94-18h-100l-339 394-338 395h-343l-344 1zm1612-1166c0-2 29-142 65-311s65-314 65-323c0-14-25-15-212-10-228 5-280 14-365 64-64 37-138 124-159 185-22 63-24 167-5 222 26 75 108 144 198 165 35 8 413 15 413 8zM6540 6656.8333c0-22 232-1092.8333 239-1099.8333 11-11 252.5834-.4999 252.5834-.4999S7029 5598 7025 5625l-7 50 43-42c65-62 128-88 219-88 182 0 290 125 290 333-1 342-248 602-503 528-68-20-111-54-141-114-28-54-22-68-71 163-20 94-42.4166 203.5831-42.4166 203.5831S6794 6660 6674 6660c-74 0-134 .8333-134-3.1667zM7169 6173c40-31 89-99 103-146 6-23 12-71 12-107 1-107-42-162-127-162-75 0-131 42-179 136-31 59-36 188-10 236 37 68 137 90 201 43zM5890 6411c-50-16-87-40-123-80-102-113-63-296 80-374 74-40 151-56 302-63 80-4 139-11 143-18 4-6 8-30 8-53 0-34-5-46-27-63-24-19-38-21-95-18s-110.0241 57.0448-110.0241 57.0448S6051 5800 5933 5800h-122l8-28c16-53 40-89 91-135 86-77 227-114 369-96 183 23 291 114 291 247 0 50-120 618.031-120 618.031s-14 3.969-136 3.969h-126l7-56 7-57-31 35c-17 20-55 46-83 58-56 24-157 35-198 21zm279-206c38-19 65-59 78-112l11-43h-82c-137 0-196 28-196 93 0 40 8 52 45 72 34 18 98 14 144-10zM4719.4991 6410.012c2.5043-9.0034 165.5043-821.074 174.0043-858.574L5310 5550c383.9977-1.3258 400.5696 1.1426 400.5696 1.1426S5679 5770 5631 5995l-90.0034 415.0086-134.9966-.0052-138 .9966c28.2217-129.3805 53.0206-247.6692 75-353l64-298h-138c-122 0-138 2-143 18-3 9-32 145-65 302-34 157-66.5009 328.5353-66.5009 328.5353S4986 6410 4855 6410c-74 0-125.9845.01-135.5009.012zM7764 6383c4-15 35-162 69-325l64-298h-119c-106 0-101.7085.125-117.2917-.0002 0-16 9.8333-63.9998 34.2917-186.9998l5-23h375l373.4983.4707c-12.1357 76.051-20.7424 127.3624-34.4983 204.5293l-122 3-121 3-16 72c-8 40-39 185-69 322l-53.7083 255.6666L7896 6410.125l-138 .875zM8364.9966 6408.0086c-4-8 177.0017-858.0396 177.0017-858.0396S8565 5550 8680 5550c71 0 128.9983-1.0052 128.9983.9948S8787 5662 8760 5790c-28 128-49 235-46 237 2 2 95-104 206-236l202-241h129c127 0 128 .9621 128 .9621S9340 5777 9292 6000l-90.0052 408.0052L9072 6408c-87 2-126.7484 1.5295-130.9983 1.6127C8942.0642 6403.6127 8962 6285 8990 6158c27-127 48-233 46-236-4-3-87 96-326 386l-84 102h-128c-70 0-131.0034 2.0086-133.0034-1.9914zM9412 6276c62-66 123-133 136-147l23-27-48-48c-58-58-79-116-70-199 16-156 143-271 328-295 40-5 172-10 292-10 200 0 201.473 0 216.499-.5318-3.506 18.0017-177.504 859.5507-177.504 859.5507S10076 6410 9982 6410c-71 0-131-2-134-5s7-64 22-136l28-130-27 3c-20 2-56 35-142 133l-117.5043 135.0086-153.494.4957c-86 1-149.487 0-158.2521.01 6.2607-6.5028 51.2521-64.0037 112.2504-134.5097zm542-398c9-46 19-91 22-100 5-16-3-18-76-18-121 0-170 33-170 116 0 64 31 84 130 84h77z"/>
  </g>
</svg>
